<?xml version="1.0" encoding="utf-8"?>
<!-- Generator: Adobe Illustrator 22.1.0, SVG Export Plug-In . SVG Version: 6.00 Build 0)  -->
<svg version="1.1" id="Layer_1" xmlns="http://www.w3.org/2000/svg" xmlns:xlink="http://www.w3.org/1999/xlink" x="0px" y="0px"
	 width="343.5786px" height="113.3853px" viewBox="0 0 343.5786 113.3853" enable-background="new 0 0 343.5786 113.3853"
	 xml:space="preserve">
<g>
	<g>
		<path fill="#ED1C24" d="M13.6191,103.4355c6.707-2.5264,13.4883-3.8887,19.3281-4.0224
			c14.209-0.3125,26.6446,6.4697,39.0489,6.4697c6.0039,0,15.1503-2.4473,17.8398-3.8613
			c-5.6055,6.0742-15.4688,11.5429-27.6191,11.3593c-10.5664-0.1562-25.4805-5.0488-37.0039-2.8398
			c3.3984-1.9707,7.6562-3.2383,13.7265-3.9473C34.0566,102.4882,22.2207,101.8632,13.6191,103.4355z M88.3945,19.7324
			L34.9511,54.3867l-1.2812,12.7412l70.1445-18.1318L88.3945,19.7324z M29.0761,77.2802l-0.7226-6.1953L0,68.3271l1.875,8.9531
			H29.0761z M28.0195,68.1953l-0.6504-5.5362L5.123,55.2578L0.3418,65.5029L28.0195,68.1953z M104.2207,51.8203L33.373,70.1465
			l-0.7187,7.1337h67.0468L104.2207,51.8203z M53.4629,95.9443c-5.5274,0.0781-9.8672-2.8359-9.9454-6.0781l-13.2304-2.1709
			l-0.8789-7.5821H2.4629l1.373,6.5196H23.791l8.6054,11.3613c16.1797-1.1826,27.2207,6.3906,38.2676,4.5762l4.418-8.2119
			l5.9922-0.3125l2.1347-6.0743l-19.0937,1.3467C61.5937,94.3584,58.3554,95.8691,53.4629,95.9443z M32.375,80.1132l-0.6582,6.5196
			H98.041l1.1543-6.5196H32.375z M27.0078,59.5429l-0.5332-4.5703L18.666,43.709L7.0644,52.9062L27.0078,59.5429z M86.3339,17.6875
			L54.9609,0L37.4394,29.5078l-2.1289,21.2578L86.3339,17.6875z"/>
	</g>
	<g>
		<polygon fill="#FFFFFF" points="121.498,41.997 134.7461,41.997 134.7461,55.0244 137.9414,55.0244 137.9414,27.5361 
			134.7461,27.5361 134.7461,38.8564 121.498,38.8564 121.498,27.5361 118.3027,27.5361 118.3027,55.0244 121.498,55.0244 		"/>
		<path fill="#FFFFFF" d="M169.8808,41.2705c0-4.0381-1.4145-7.4873-4.2051-10.252c-2.7895-2.7617-6.3022-4.1621-10.4414-4.1621
			c-2.5517,0-4.9589,0.6436-7.1538,1.9121c-2.1953,1.2608-3.9531,3.043-5.2236,5.2959c-1.2734,2.2393-1.9194,4.708-1.9194,7.3369
			c0,3.9356,1.416,7.3399,4.208,10.1182c2.7832,2.7754,6.2514,4.1826,10.3076,4.1826c4.0054,0,7.4482-1.4131,10.2334-4.2002
			C168.4697,48.7129,169.8808,45.2705,169.8808,41.2705z M166.5957,41.2607c0,2.0967-0.4952,4.0313-1.4717,5.752
			c-0.9668,1.7089-2.3384,3.081-4.0762,4.0781c-1.7353,0.9902-3.6514,1.4922-5.6943,1.4922c-3.0542,0-5.7002-1.0908-7.8643-3.2412
			c-2.1636-2.1602-3.2607-4.835-3.2607-7.9522c0-2.1045,0.4956-4.0459,1.4731-5.7685c0.9824-1.7227,2.3609-3.1075,4.0987-4.1172
			c1.7265-1.0117,3.5947-1.5244,5.5532-1.5244c1.9917,0,3.8906,0.5127,5.6455,1.5253c1.7617,1.0059,3.1499,2.3731,4.126,4.0645
			C166.101,37.2617,166.5957,39.1767,166.5957,41.2607z"/>
		<polygon fill="#FFFFFF" points="176.2192,34.998 193.602,54.9384 193.6772,55.0244 194.645,55.0244 194.645,27.5361 
			191.4848,27.5361 191.4848,47.8066 173.8872,27.5361 172.934,27.5361 172.934,55.0244 176.2192,55.0244 		"/>
		<path fill="#FFFFFF" d="M226.9712,41.8408l0.0009-0.252h-12.1338v3.1075h8.5606c-0.3867,2.288-1.4883,4.1865-3.2754,5.6445
			c-1.8691,1.5224-4.1875,2.2949-6.8926,2.2949c-2.2363,0-4.3183-0.5176-6.1894-1.5381c-1.8672-1.0156-3.3555-2.4355-4.4219-4.2226
			c-1.0625-1.7842-1.6016-3.6885-1.6016-5.6612c0-1.916,0.5196-3.7734,1.5469-5.5195c1.0254-1.7344,2.4912-3.125,4.3555-4.1338
			c3.3633-1.8252,7.1035-2.082,11.0693-0.4023c1.751,0.749,3.3887,1.8652,4.8662,3.3183l0.1719,0.169l2.4629-2.3321l-0.1914-0.1816
			c-1.9336-1.8311-3.9473-3.1836-5.9883-4.0205c-2.042-0.833-4.248-1.2549-6.5547-1.2549c-2.8535,0-5.4512,0.6348-7.7197,1.8867
			c-2.2666,1.2598-4.0772,3.0293-5.3819,5.2608c-1.3007,2.2373-1.9609,4.6816-1.9609,7.2666c0,3.4804,1.1504,6.5898,3.4209,9.2451
			c2.9483,3.4414,7.001,5.1865,12.0459,5.1865c4.1582,0,7.5293-1.2627,10.0215-3.7529
			C225.6684,49.457,226.9428,46.0566,226.9712,41.8408z"/>
		<polygon fill="#FFFFFF" points="257.2553,55.0244 243.059,39.9052 256.3032,27.5361 251.9458,27.5361 241.5044,37.334 
			241.5044,27.5361 238.2563,27.5361 238.2563,55.0244 241.5044,55.0244 241.5044,42.834 252.9799,55.0244 		"/>
		<path fill="#FFFFFF" d="M282.1313,51.5019c2.7832-2.7871,4.1953-6.2295,4.1953-10.2314c0-4.0391-1.414-7.4883-4.2011-10.252
			c-2.794-2.7617-6.3077-4.1621-10.4434-4.1621c-2.5547,0-4.9629,0.6436-7.1582,1.9121c-2.1904,1.2617-3.9473,3.043-5.2217,5.2969
			c-1.2725,2.2432-1.917,4.7109-1.917,7.3359c0,3.9327,1.4141,7.3369,4.2041,10.1192c2.793,2.7744,6.2627,4.1816,10.3135,4.1816
			C275.9047,55.7021,279.3462,54.289,282.1313,51.5019z M263.938,49.3418c-2.1641-2.1573-3.2618-4.833-3.2618-7.9522
			c0-2.1142,0.4951-4.0556,1.4727-5.7685c0.9883-1.7305,2.3691-3.1163,4.1045-4.1172c1.7246-1.0117,3.5908-1.5244,5.5478-1.5244
			c1.9942,0,3.8946,0.5127,5.6465,1.5253c1.7676,1.0118,3.1553,2.379,4.125,4.0645c0.9717,1.6787,1.4649,3.5938,1.4649,5.6914
			c0,2.1104-0.4942,4.0449-1.4668,5.752c-0.9649,1.7119-2.337,3.0839-4.0801,4.0781c-1.7256,0.9902-3.6406,1.4922-5.6895,1.4922
			C268.7465,52.583,266.1001,51.4922,263.938,49.3418z"/>
		<polygon fill="#FFFFFF" points="292.6684,34.998 310.0493,54.9384 310.1245,55.0244 311.0922,55.0244 311.0922,27.5361 
			307.9301,27.5361 307.9301,47.8066 290.3305,27.5361 289.3794,27.5361 289.3794,55.0244 292.6684,55.0244 		"/>
		<path fill="#FFFFFF" d="M329.6059,55.7021c4.1592,0,7.5293-1.2627,10.0176-3.7529c2.4902-2.4873,3.7666-5.8887,3.7949-10.1084
			l0.001-0.252h-12.1357v3.1075h8.5625c-0.3887,2.289-1.4922,4.1875-3.2793,5.6445c-1.8653,1.5224-4.1817,2.2949-6.8848,2.2949
			c-2.2402,0-4.3242-0.5176-6.1934-1.5381c-1.873-1.0205-3.3603-2.4414-4.4199-4.2226c-1.0625-1.7784-1.5996-3.6836-1.5996-5.6612
			c0-1.9199,0.5176-3.7763,1.541-5.5185c1.0254-1.7315,2.4912-3.1231,4.3555-4.1348c3.3613-1.8242,7.1084-2.084,11.0674-0.4023
			c1.7558,0.7509,3.3945,1.8672,4.8701,3.3183l0.1719,0.169l2.4589-2.3321l-0.1914-0.1816
			c-1.9336-1.833-3.9463-3.1855-5.9843-4.0205c-2.0459-0.833-4.251-1.2549-6.5528-1.2549c-2.8603,0-5.459,0.6348-7.7236,1.8867
			c-2.2647,1.2608-4.0732,3.0303-5.3779,5.2608c-1.3008,2.2373-1.961,4.6816-1.961,7.2666c0,3.4824,1.1504,6.5927,3.4209,9.2451
			C320.5141,53.957,324.5649,55.7021,329.6059,55.7021z"/>
		<polygon fill="#FFFFFF" points="118.1445,66.8584 122.957,66.8584 122.957,86.3388 125.6562,86.3388 125.6562,66.8584 
			130.4726,66.8584 130.4726,64.247 118.1445,64.247 		"/>
		<path fill="#FFFFFF" d="M142.1132,63.706c-2.0493,0-3.9848,0.5156-5.7539,1.5332c-1.7631,1.0205-3.1743,2.4531-4.1938,4.2569
			c-1.021,1.7929-1.5386,3.7754-1.5386,5.8935c0,3.1621,1.1367,5.8985,3.3784,8.1338c2.2403,2.2285,5.0269,3.3584,8.2837,3.3584
			c3.2163,0,5.9815-1.1357,8.2198-3.376c2.2348-2.2392,3.3681-5.0039,3.3681-8.2177c0-3.2481-1.1362-6.0196-3.3764-8.2364
			C148.2622,64.832,145.4404,63.706,142.1132,63.706z M151.1484,75.2763c0,1.6787-0.3916,3.2188-1.1646,4.5801
			c-0.7734,1.3652-1.8652,2.4561-3.2446,3.2422c-1.3813,0.7881-2.9053,1.1875-4.5303,1.1875c-2.4296,0-4.5346-0.8682-6.2573-2.5811
			c-1.7187-1.7119-2.5903-3.8388-2.5903-6.3232c0-1.6914,0.3931-3.2363,1.168-4.5908c0.7861-1.3701,1.8833-2.4707,3.2631-3.2715
			c1.3731-0.8066,2.8589-1.2158,4.4165-1.2158c1.5831,0,3.0957,0.4092,4.4966,1.2168c1.4024,0.8066,2.5059,1.8935,3.2788,3.2324
			C150.7568,72.0937,151.1484,73.6152,151.1484,75.2763z"/>
		<path fill="#FFFFFF" d="M168.4199,77.5302c0,1.67-0.0713,2.7852-0.2119,3.3135c-0.2007,0.7334-0.5103,1.3584-0.9214,1.8565
			c-0.4175,0.5127-0.9409,0.915-1.5562,1.1972c-1.3247,0.6153-2.8496,0.5655-4.2929-0.124
			c-0.7681-0.3652-1.3409-0.8213-1.7051-1.3584c-0.3687-0.5303-0.6006-1.1924-0.71-2.0283
			c-0.0561-0.3682-0.0849-1.3291-0.0849-2.8565V64.247h-2.6563v13.2832c0,2.2344,0.1328,3.7491,0.4058,4.628
			c0.4399,1.4258,1.3135,2.582,2.5957,3.4355c1.2763,0.8545,2.8301,1.2881,4.6177,1.2881c1.6562,0,3.0883-0.4619,4.2553-1.373
			c1.167-0.9131,1.9556-1.9981,2.3443-3.2266c0.3823-1.1982,0.5761-2.7969,0.5761-4.752V64.247h-2.6562V77.5302z"/>
		<path fill="#FFFFFF" d="M185.1606,75.5947c1.0684-0.4688,1.9033-1.1807,2.4815-2.1162c0.5839-0.9424,0.8681-2.001,0.8681-3.2373
			c0-1.4649-0.4238-2.7158-1.2597-3.7178c-0.8321-1.0059-1.9297-1.6699-3.2637-1.9756c-0.8711-0.1992-2.5293-0.3008-4.9297-0.3008
			h-4.5488v22.0918h2.6562V76.3154h0.8457l7.7676,10.0234h3.3027l-7.7754-10.0322
			C182.9311,76.2578,184.1958,76.0244,185.1606,75.5947z M180.6352,73.7295l-3.4707-0.0293v-6.8418h3.5586
			c1.4414,0,2.4775,0.124,3.0801,0.3691c0.5937,0.2383,1.0625,0.6211,1.4297,1.1709c0.3662,0.5547,0.5449,1.1553,0.5449,1.8389
			c0,0.7002-0.1816,1.334-0.5391,1.8838c-0.3574,0.5546-0.8632,0.9638-1.5,1.2148
			C183.0708,73.5976,182.0249,73.7295,180.6352,73.7295z"/>
		<rect x="192.3266" y="64.247" fill="#FFFFFF" width="2.6621" height="22.0918"/>
		<path fill="#FFFFFF" d="M206.3501,73.6923c-1.9317-1.4316-2.5694-1.9541-2.7598-2.1357
			c-0.4922-0.4912-0.8359-0.9512-1.0215-1.3662c-0.1816-0.4063-0.2695-0.8184-0.2695-1.2617c0-0.708,0.2441-1.2881,0.7461-1.7715
			c0.5117-0.4854,1.1552-0.7207,1.9687-0.7207c0.6231,0,1.209,0.1601,1.7403,0.4766c0.5468,0.3271,1.2226,1.0205,2.0068,2.0605
			l0.1514,0.2002l2.1552-1.627l-0.1455-0.1992c-0.998-1.3681-1.9707-2.3291-2.8886-2.8545
			c-0.9161-0.5224-1.918-0.7871-2.9786-0.7871c-1.0058,0-1.9423,0.2354-2.7841,0.6983c-0.8536,0.4658-1.5264,1.1103-1.9991,1.9179
			c-0.4687,0.8086-0.707,1.7149-0.707,2.6924c0,1.2324,0.4014,2.3955,1.1914,3.4512c0.4531,0.6279,1.5703,1.6113,3.416,3.0058
			c1.7578,1.3272,2.9844,2.4737,3.6446,3.4043c0.4628,0.667,0.6894,1.3184,0.6894,1.9903c0,0.5869-0.1582,1.1513-0.4687,1.6787
			c-0.3028,0.5185-0.7579,0.9424-1.3496,1.2598c-0.6153,0.3242-1.2461,0.4814-1.9278,0.4814c-1.584,0-3.0137-1.1582-4.2539-3.4414
			l-0.124-0.2295l-2.2656,1.3633l0.1152,0.2109c0.9131,1.669,1.9326,2.8809,3.0293,3.6006c1.1045,0.7246,2.3516,1.0918,3.706,1.0918
			c1.7627,0,3.2803-0.6064,4.5088-1.8008c1.2373-1.1914,1.8643-2.626,1.8643-4.2617c0-1.1211-0.3652-2.2568-1.084-3.3779
			C209.5376,76.3281,208.2602,75.1015,206.3501,73.6923z"/>
		<polygon fill="#FFFFFF" points="234.4282,64.247 225.8891,81.6484 217.2661,64.247 216.5434,64.247 213.3813,86.3388 
			215.9741,86.3388 218.0122,71.3701 225.3774,86.2002 225.4467,86.3388 226.311,86.3388 233.6528,71.4873 235.7016,86.3388 
			238.3256,86.3388 235.1489,64.247 		"/>
		<path fill="#FFFFFF" d="M258.8335,75.4726c-0.5411-0.4599-1.2686-0.8662-2.169-1.2129c0.7207-0.4687,1.2881-1.0498,1.6895-1.7314
			c0.4902-0.8272,0.7382-1.751,0.7382-2.7442c0-1.0693-0.2822-2.0595-0.8378-2.9423c-0.5508-0.8721-1.3213-1.5332-2.2911-1.9668
			c-0.957-0.417-2.3203-0.628-4.0488-0.628h-4.5078v22.0918h6.1777c2.1953,0,3.9707-0.6289,5.2725-1.8681
			c1.3115-1.2334,1.9775-2.7735,1.9775-4.5772c0-0.8887-0.1757-1.7207-0.5234-2.4756
			C259.9614,76.6582,259.4643,76.0029,258.8335,75.4726z M255.7856,71.6455c-0.3789,0.5566-0.9043,0.9687-1.5644,1.2265
			c-0.67,0.2686-1.752,0.4043-3.2149,0.4043h-0.9844v-6.4179h2.252c1.4453,0,2.5019,0.2656,3.1406,0.79
			c0.6367,0.5186,0.9473,1.2168,0.9473,2.1357C256.3618,70.4599,256.1674,71.0859,255.7856,71.6455z M250.0219,75.9404h0.9746
			c1.7754,0,3.0469,0.0898,3.7774,0.2666c1.0391,0.248,1.8652,0.7148,2.456,1.3857c0.5821,0.667,0.878,1.4551,0.878,2.3438
			c0,0.7207-0.2041,1.3721-0.6231,1.9922c-0.4179,0.6113-0.9775,1.0664-1.666,1.3515c-0.6943,0.2959-1.8291,0.4454-3.373,0.4454
			h-2.4239V75.9404z"/>
		<path fill="#FFFFFF" d="M282.0258,67.0517c-2.2461-2.2197-5.0683-3.3457-8.3867-3.3457c-2.0508,0-3.9853,0.5156-5.7519,1.5332
			c-1.7657,1.0215-3.1778,2.4541-4.1973,4.2578c-1.0195,1.8067-1.5371,3.7891-1.5371,5.8926c0,3.1621,1.1367,5.8994,3.3799,8.1338
			c2.2373,2.2285,5.0244,3.3584,8.2842,3.3584c3.2187,0,5.9834-1.1357,8.2148-3.376c2.2383-2.2412,3.373-5.0068,3.373-8.2177
			C285.4047,72.0449,284.268,69.2744,282.0258,67.0517z M282.6723,75.2763c0,1.6797-0.3926,3.2198-1.167,4.5801
			c-0.7744,1.3672-1.8652,2.458-3.2412,3.2422c-1.3808,0.7881-2.9062,1.1875-4.5312,1.1875c-2.4297,0-4.5332-0.8682-6.252-2.582
			c-1.7226-1.709-2.5957-3.836-2.5957-6.3223c0-1.6836,0.3945-3.2285,1.1719-4.5918c0.7715-1.3613,1.8691-2.4619,3.2627-3.2705
			c1.373-0.8066,2.8584-1.2158,4.4131-1.2158c1.5898,0,3.1006,0.4092,4.4922,1.2168c1.4023,0.8047,2.5068,1.8916,3.2812,3.2324
			C282.2797,72.0927,282.6723,73.6142,282.6723,75.2763z"/>
		<path fill="#FFFFFF" d="M295.2016,64.247l-10.4414,22.0918h2.9649l3.3613-7.1015h8.9863l3.3945,7.1015h2.8829L296.0454,64.247
			H295.2016z M298.9008,76.6513h-6.5918l3.3057-6.9775L298.9008,76.6513z"/>
		<path fill="#FFFFFF" d="M318.9184,75.5947c1.0645-0.4678,1.9004-1.1797,2.4863-2.1172c0.5801-0.9443,0.8633-2.0029,0.8633-3.2363
			c0-1.4629-0.4238-2.7139-1.2597-3.7178c-0.834-1.0068-1.9317-1.6709-3.2637-1.9756c-0.8731-0.1992-2.5332-0.3008-4.9316-0.3008
			h-4.5469v22.0918h2.6543V76.3154h0.8476l7.7657,10.0234h3.3046l-7.7753-10.0322
			C316.687,76.2578,317.9516,76.0244,318.9184,75.5947z M314.3911,73.7295l-3.4707-0.0293v-6.8418h3.5605
			c1.4395,0,2.4756,0.124,3.0801,0.3681c0.5928,0.2403,1.0605,0.6241,1.4297,1.1719c0.3672,0.5586,0.5469,1.1602,0.5469,1.8389
			c0,0.6933-0.1827,1.3271-0.543,1.8847c-0.3613,0.5625-0.8525,0.96-1.5,1.2149C316.8296,73.5976,315.7846,73.7295,314.3911,73.7295
			z"/>
		<path fill="#FFFFFF" d="M341.768,68.956c-1.207-1.8476-2.9013-3.166-5.0361-3.9189c-1.4814-0.5244-3.874-0.7901-7.1123-0.7901
			h-4.7285v22.0918h7.1211c2.7636,0,4.8545-0.3945,6.3906-1.2041c1.5225-0.7998,2.7812-2.0556,3.7402-3.7343
			c0.9522-1.6739,1.4356-3.6377,1.4356-5.835C343.5786,73.0244,342.9692,70.8007,341.768,68.956z M327.4594,66.8584h1.2774
			c3.0566,0,5.2793,0.2041,6.6035,0.6064c1.7422,0.5322,3.1133,1.5215,4.0781,2.9414c0.9785,1.4229,1.4746,3.1709,1.4746,5.1944
			c0,1.9209-0.456,3.5673-1.3545,4.8955c-0.9004,1.3349-2.1113,2.2373-3.7011,2.7568c-1.126,0.3633-3.1895,0.5469-6.1319,0.5469
			h-2.2461V66.8584z"/>
	</g>
</g>
</svg>
