<?xml version="1.0" encoding="utf-8"?>
<!-- Generator: Adobe Illustrator 22.1.0, SVG Export Plug-In . SVG Version: 6.00 Build 0)  -->
<svg version="1.1"
	 id="svg2" xmlns:cc="http://creativecommons.org/ns#" xmlns:dc="http://purl.org/dc/elements/1.1/" xmlns:rdf="http://www.w3.org/1999/02/22-rdf-syntax-ns#" xmlns:svg="http://www.w3.org/2000/svg"
	 xmlns="http://www.w3.org/2000/svg" xmlns:xlink="http://www.w3.org/1999/xlink" x="0px" y="0px" width="214.1px" height="73.1px"
	 viewBox="0 0 214.1 73.1" enable-background="new 0 0 214.1 73.1" xml:space="preserve">
<g id="layer1" transform="translate(-421.52143,-487.24075)">
	<g id="g5" transform="translate(111.52143,227.04075)">
		
			<linearGradient id="path18_1_" gradientUnits="userSpaceOnUse" x1="727.05" y1="73.8898" x2="727.05" y2="27.1916" gradientTransform="matrix(1 0 0 -1 -310 334.0898)">
			<stop  offset="0.15" style="stop-color:#F68B1E"/>
			<stop  offset="0.3012" style="stop-color:#F5831F"/>
			<stop  offset="0.5698" style="stop-color:#F36D20"/>
			<stop  offset="0.9223" style="stop-color:#EF3F23"/>
			<stop  offset="1" style="stop-color:#EE3123"/>
		</linearGradient>
		<path id="path18" fill="url(#path18_1_)" d="M352.4,260.9c-2.4,0.2-4.6,0.3-10.9,0.3h-2.9c0,0-0.2,2.3-0.2,5.1h2
			c4.6,0,6.1,2.3,6.3,6.1l0.3,6c0.5-0.1,4.8-0.1,5.3,0C351.8,274.1,352,265.1,352.4,260.9L352.4,260.9z M336,296.7
			c-0.2-3.2,0-29.7,0-30.4c0.1-2.8,0.2-5.1,0.2-5.1h-10.1c0,0,0.2,2.3,0.2,5.1c0.2,8,0.2,27.3,0,30.4c-0.1,2.5-1.1,4-4,4h-3.1v5.1
			c0,0,7.7-0.1,11.9-0.1c4.3,0,11.9,0.1,11.9,0.1v-5.1h-3.3C336.9,300.7,336.2,299.2,336,296.7z M324.1,266.3
			c-0.1-2.8-0.2-5.1-0.2-5.1H321c-5.7,0-8.8-0.1-11-0.3c0.3,4.2,0.5,13.2,0.3,17.4c0.6-0.1,4.9-0.1,5.4,0l0.3-6
			c0.2-3.7,1.7-6.1,6.3-6.1h1.8L324.1,266.3z M524.1,301.6h-0.8c-2.8,0-3.5-1-3.6-4.1c-0.1-2.5-0.1-6.8,0-10.6
			c0.1-7.2-2.6-12-10.1-12c-4,0-7.4,1.8-8.2,6c1.2-1.1,2.3-1.3,4.4-1.3c3.7,0,4.9,3,5.1,7.8c0.1,3.7,0.1,7,0,10.1
			c-0.1,3-1,4.1-3.4,4.1h-1v4.3c0.4,0,5.6-0.2,8.8-0.2s8.1,0.2,8.8,0.2C524,305.5,524,302.6,524.1,301.6z M499.6,297.5v-21.9
			c-2.5,0.2-10.5,0.2-13.4,0.2v4.1h1c3.1,0,3.5,1.5,3.6,3.9c0.1,2.5,0.1,10.3,0,13.7c-0.1,3-0.8,4-3.4,4.1h-1.2v4.3
			c0.5,0,5.8-0.2,9-0.2s8.1,0.2,8.9,0.2v-4.3H503C500.6,301.6,499.6,300.6,499.6,297.5L499.6,297.5z M398.5,297.9
			c-0.1-3-0.1-21.1,0-22.3c-2.8,0.1-9.5,0.2-12.8,0.2c0,0,3.9,3,4.1,7.6c0.1,2.5,0.1,11.6,0,14.6s-0.8,3.5-3.4,3.6H385v4.3
			c0.5,0,5.9-0.2,9.1-0.2s8.2,0.2,9,0.2v-4.3H402C399.5,301.6,398.6,301,398.5,297.9L398.5,297.9z M393.6,270.7
			c3.1,0,5.3-2.1,5.3-5.3c0-3-2.2-5.2-5.3-5.2c-3,0-5.2,2.2-5.2,5.2C388.5,268.5,390.6,270.7,393.6,270.7z M351.7,299.3
			c0,4.6,4.1,7.5,8.6,7.5c2.5,0,5.9-1.5,6.9-3.8c-1.1-0.3-5.7-0.2-5.7-5.6c0-4,3.7-5.6,6.5-5.5C359.4,287.6,351.7,291.2,351.7,299.3
			z M379.5,302c-1-0.1-1.4-0.6-1.4-3.7v-11c0-7.6-2.7-12.4-12.5-12.4c-6.5,0-10.5,2.1-11,6.4c-0.1,0.7,0.1,1.6,0.3,2
			c1.2-1,3.6-2.4,7.6-2.4c5.6,0,7,3.4,6.8,8c-0.2,4.7-0.1,7.8-0.1,8.8c0,1.4,0.1,2.3,0.3,3.6c0.6,3.4,2.7,5.3,7.1,5.3
			c4.2,0,6.2-3,4.9-6.4C381.2999,301.4,380.3999,302.1,379.5,302L379.5,302z M453,299.3c0,4.6,4.1,7.5,8.6,7.5
			c2.5,0,5.9-1.5,6.9-3.8c-1.1-0.3-5.7-0.2-5.7-5.6c0-4,3.7-5.6,6.5-5.5C460.7,287.6,453,291.2,453,299.3z M480.8,302
			c-1-0.1-1.4-0.6-1.4-3.7v-11c0-7.6-2.7-12.4-12.5-12.4c-6.5,0-10.5,2.1-11,6.4c-0.1,0.7,0.1,1.6,0.3,2c1.2-1,3.6-2.4,7.6-2.4
			c5.6,0,7,3.4,6.8,8c-0.2,4.7-0.1,7.8-0.1,8.8c0,1.4,0.1,2.3,0.3,3.6c0.6,3.4,2.7,5.3,7.1,5.3c4.2,0,6.3-3,4.9-6.4
			C482.5999,301.4,481.6999,302.1,480.8,302L480.8,302z M419.3,279.9h0.7c-0.1-0.4-0.1-3.7,0-4.2c0,0-5.7,0.2-8.8,0.2
			c-3.1,0-8.8-0.2-8.8-0.2v4.2h0.7c3,0,3.7,1.2,4.8,4.3c2,5.7,6,17.7,7.3,22.1c0.8-0.1,5.4-0.1,6.1,0c0.3-1.2,0.7-2.3,1.2-4
			c-1.2-4.2-4.6-15.6-5.4-18.7C416.4,280.9,417.7,279.9,419.3,279.9L419.3,279.9z M437.5999,279.9h0.7v-4.2c0,0-4.9,0.2-7.9,0.2
			s-7.7-0.2-7.7-0.2v4.2h0.9c1.3,0,2.1,0.5,2.4,1.2c1.9,5.3,6.3,20.6,7.6,25.2c0.9-0.1,5.9-0.1,6.8,0c0.3-0.9,0.5-1.7,1-3.1
			c-1.4-4.1-5.2-16.7-5.9-19.6C434.7999,281.3,435.3999,279.9,437.5999,279.9z M453.7,275.8c0,0-3.6,0.2-6.1,0.2
			c-2.6,0-6.7-0.2-6.7-0.2c0.1,1.6,0.1,2.6,0,4.2h0.9c1.3,0,2.1,0.5,2.4,1.2c0.7,1,1.1,4.5,0.1,8.3
			C448.3999,289.9,454.7999,286.4,453.7,275.8L453.7,275.8z"/>
		<g id="g20">
			<path id="path22" fill="#FFFFFF" d="M357.5,324.6v8.5h-1.4v-8.5h-3v-1.3h7.3v1.3H357.5z"/>
			<path id="path24" fill="#FFFFFF" d="M368,333.1v-4.5h-4.5v4.5h-1.4v-9.8h1.4v4h4.5v-4h1.4v9.8H368z"/>
			<path id="path26" fill="#FFFFFF" d="M371.8,333.1v-9.8h6.1v1.2h-4.7v2.8h3.4v1.2h-3.4v3.3h5v1.2h-6.4V333.1z"/>
			<path id="path28" fill="#FFFFFF" d="M390,333.1v-4.5h-4.5v4.5h-1.4v-9.8h1.4v4h4.5v-4h1.4v9.8H390z"/>
			<path id="path30" fill="#FFFFFF" d="M393.8,333.1v-9.8h6.1v1.2h-4.7v2.8h3.4v1.2h-3.4v3.3h5v1.2h-6.4V333.1z"/>
			<path id="path32" fill="#FFFFFF" d="M407.8,333.1l-0.9-2.7h-3.7l-0.9,2.7H401l3.3-9.8h1.7l3.3,9.8H407.8z M405.1,324.7
				L405.1,324.7l-1.5,4.5h2.9L405.1,324.7z"/>
			<path id="path34" fill="#FFFFFF" d="M416.5,333.1l-2-4.2h-2.2v4.2h-1.4v-9.8h3.6c2.4,0,3.5,1.1,3.5,2.8c0,1.4-0.8,2.2-2,2.6
				l2.1,4.4H416.5z M414.4,324.5h-2.1v3.2h2.1c1.4,0,2.2-0.4,2.2-1.7C416.5,324.9,415.8,324.5,414.4,324.5z"/>
			<path id="path36" fill="#FFFFFF" d="M423.4,324.6v8.5H422v-8.5h-3v-1.3h7.3v1.3H423.4z"/>
			<path id="path38" fill="#FFFFFF" d="M435.9,333.3c-2.5,0-4.2-2-4.2-5.1s1.6-5.1,4.2-5.1c2.5,0,4.2,2,4.2,5.1
				S438.4,333.3,435.9,333.3z M435.9,324.3c-1.7,0-2.8,1.4-2.8,3.9c0,2.4,1.1,3.9,2.8,3.9c1.7,0,2.8-1.4,2.8-3.9
				C438.7,325.8,437.6,324.3,435.9,324.3z"/>
			<path id="path40" fill="#FFFFFF" d="M443.4,324.6v3h3.1v1.2h-3.1v4.3H442v-9.8h5.8v1.2h-4.4V324.6z"/>
			<path id="path42" fill="#FFFFFF" d="M459.5,333.1l-0.9-2.7H455l-0.9,2.7h-1.4l3.3-9.8h1.7l3.3,9.8H459.5z M456.8,324.7
				L456.8,324.7l-1.5,4.5h2.9L456.8,324.7z"/>
			<path id="path44" fill="#FFFFFF" d="M465.5,333.3c-2,0-3.2-1-3.7-2.5l1.3-0.4c0.4,1.1,1.1,1.7,2.4,1.7c1.4,0,2.1-0.6,2.1-1.5
				s-0.6-1.3-2.3-1.9c-2.1-0.7-3.2-1.2-3.2-3c0-1.6,1.4-2.6,3.2-2.6c1.9,0,3,0.9,3.4,2.1l-1.2,0.5c-0.4-1-1.2-1.4-2.2-1.4
				c-1.2,0-1.9,0.6-1.9,1.4c0,0.9,0.5,1.2,2.3,1.8c2.3,0.7,3.2,1.4,3.2,3C469,332.2,467.6,333.3,465.5,333.3L465.5,333.3z"/>
			<path id="path46" fill="#FFFFFF" d="M471.2,333.1v-9.8h1.4v9.8H471.2z"/>
			<path id="path48" fill="#FFFFFF" d="M481.2,333.1l-0.9-2.7h-3.7l-0.9,2.7h-1.4l3.3-9.8h1.7l3.3,9.8H481.2z M478.5,324.7
				L478.5,324.7l-1.5,4.5h2.9L478.5,324.7z"/>
		</g>
	</g>
</g>
</svg>
